<svg width="65" height="65" viewBox="0 0 65 65" fill="none" xmlns="http://www.w3.org/2000/svg">
<rect width="65" height="65" rx="10" fill="#828282"/>
<path d="M23.6747 26.6212C22.8611 25.8076 22.8611 24.4885 23.6747 23.6749C24.4883 22.8613 25.8074 22.8613 26.621 23.6749L32.0119 29.0658L37.3973 23.6804C38.211 22.8668 39.53 22.8668 40.3435 23.6804C41.1573 24.494 41.1573 25.813 40.3435 26.6266L34.9581 32.0121L40.3415 37.3952C41.155 38.209 41.155 39.5279 40.3415 40.3415C39.5277 41.1552 38.2088 41.1552 37.395 40.3415L32.0119 34.9583L26.627 40.3433C25.8134 41.1569 24.4943 41.1569 23.6807 40.3433C22.8672 39.5296 22.8672 38.2106 23.6807 37.3969L29.0656 32.0121L23.6747 26.6212Z" fill="white"/>
<path fill-rule="evenodd" clip-rule="evenodd" d="M54.9166 32C54.9166 44.6565 44.6564 54.9167 32 54.9167C19.3435 54.9167 9.08331 44.6565 9.08331 32C9.08331 19.3435 19.3435 9.08337 32 9.08337C44.6564 9.08337 54.9166 19.3435 54.9166 32ZM13.2642 32C13.2642 42.3475 21.6525 50.7359 32 50.7359C42.3475 50.7359 50.7358 42.3475 50.7358 32C50.7358 21.6526 42.3475 13.2643 32 13.2643C21.6525 13.2643 13.2642 21.6526 13.2642 32Z" fill="white"/>
<path fill-rule="evenodd" clip-rule="evenodd" d="M39.4162 13.875H42.7712V24.5759L51.5712 19.2238L53.2419 22.2659L44.4281 27.625L53.2419 32.9841L51.5747 36.0263L42.7712 30.6741V41.375H39.4162V30.6741L30.6162 36.0263L28.9456 32.9841L37.7594 27.625L28.9456 22.2659L30.6128 19.2238L39.4162 24.5759V13.875ZM11.875 41.375H25.625V55.125H11.875V41.375Z" fill="#0F0F0F" fill-opacity="0.75"/>
</svg>
